HIERARCHY
ROOT Hips
{
    OFFSET 0.000000 0.000000 0.000000
    CHANNELS 6 Xposition Yposition Zposition Zrotation Xrotation Yrotation
    JOINT Spine
    {
        OFFSET -0.000000 14.517291 0.000000
        CHANNELS 3 Zrotation Xrotation Yrotation
        JOINT Spine1
        {
            OFFSET -0.000000 37.558300 0.000000
            CHANNELS 3 Zrotation Xrotation Yrotation
            JOINT Neck
            {
                OFFSET -0.000000 37.404057 3.400369
                CHANNELS 3 Zrotation Xrotation Yrotation
                JOINT Head
                {
                    OFFSET -0.000000 24.785618 -3.540803
                    CHANNELS 3 Zrotation Xrotation Yrotation
                    End Site
                    {
                        OFFSET -0.000000 35.408028 0.000000
                    }
                }
            }
            JOINT LeftShoulder
            {
                OFFSET 6.992933 33.973492 -0.192664
                CHANNELS 3 Zrotation Xrotation Yrotation
                JOINT LeftArm
                {
                    OFFSET 21.527611 0.000000 0.000000
                    CHANNELS 3 Zrotation Xrotation Yrotation
                    JOINT LeftForeArm
                    {
                        OFFSET 56.353916 0.000000 0.000000
                        CHANNELS 3 Zrotation Xrotation Yrotation
                        JOINT LeftHand
                        {
                            OFFSET 47.774071 0.000000 0.000000
                            CHANNELS 3 Zrotation Xrotation Yrotation
                            End Site
                            {
                                OFFSET 26.556021 0.000000 0.000000
                            }
                        }
                    }
                }
            }
            JOINT RightShoulder
            {
                OFFSET -7.065357 33.973492 -0.192664
                CHANNELS 3 Zrotation Xrotation Yrotation
                JOINT RightArm
                {
                    OFFSET -21.527611 0.000000 0.000000
                    CHANNELS 3 Zrotation Xrotation Yrotation
                    JOINT RightForeArm
                    {
                        OFFSET -56.353916 0.000000 0.000000
                        CHANNELS 3 Zrotation Xrotation Yrotation
                        JOINT RightHand
                        {
                            OFFSET -47.774071 0.000000 0.000000
                            CHANNELS 3 Zrotation Xrotation Yrotation
                            End Site
                            {
                                OFFSET -26.556021 0.000000 0.000000
                            }
                        }
                    }
                }
            }
        }
    }
    JOINT LeftUpLeg
    {
        OFFSET 17.704014 0.000000 0.000000
        CHANNELS 3 Zrotation Xrotation Yrotation
        JOINT LeftLeg
        {
            OFFSET -0.000000 -81.181816 0.000000
            CHANNELS 3 Zrotation Xrotation Yrotation
            JOINT LeftFoot
            {
                OFFSET -0.000000 -62.821102 0.000000
                CHANNELS 3 Zrotation Xrotation Yrotation
                JOINT LeftToeBase
                {
                    OFFSET -0.000000 -11.507608 26.556021
                    CHANNELS 3 Zrotation Xrotation Yrotation
                    End Site
                    {
                        OFFSET -0.000000 0.000000 7.081605
                    }
                }
            }
        }
    }
    JOINT RightUpLeg
    {
        OFFSET -17.704014 0.000000 0.000000
        CHANNELS 3 Zrotation Xrotation Yrotation
        JOINT RightLeg
        {
            OFFSET -0.000000 -81.181816 0.000000
            CHANNELS 3 Zrotation Xrotation Yrotation
            JOINT RightFoot
            {
                OFFSET -0.000000 -62.821102 0.000000
                CHANNELS 3 Zrotation Xrotation Yrotation
                JOINT RightToeBase
                {
                    OFFSET -0.000000 -11.507608 26.556021
                    CHANNELS 3 Zrotation Xrotation Yrotation
                    End Site
                    {
                        OFFSET -0.000000 0.000000 7.081605
                    }
                }
            }
        }
    }
}
MOTION
Frames:    9
Frame Time:    0.008333
-27.260231    145.754730    -84.184319    -2.208381    -7.277246    36.341599    -1.931536    3.842579    1.035443    -1.433402    -0.344990    0.320671    0.928278    5.849481    -17.090332    16.813969    -2.548404    -15.189286    3.283677    8.207959    -13.247208    -29.964571    16.141665    -50.631618    -1.371267    -29.294596    -111.722923    -13.475626    -29.130692    -18.540913    0.977717    11.282230    -4.149814    28.374786    15.022804    40.464088    -5.442937    8.568486    34.333450    -22.163965    2.778699    36.922848    26.952438    -15.798321    -4.997681    -24.432478    53.218552    -16.551783    10.032867    -31.195793    50.919865    0.000000    0.000000    0.000000    -24.434477    -9.342941    -12.631717    8.369397    24.684240    -11.282773    14.150182    2.209465    -19.171709    0.000000    0.000000    0.000000    
-26.747967    145.687561    -84.419456    -2.144620    -7.391151    36.421799    -2.082325    3.892181    1.159430    -1.338654    -0.369304    0.359923    0.789982    5.977403    -17.256340    17.085888    -2.423979    -15.323997    3.320528    8.088717    -13.225334    -29.760523    16.075783    -50.476578    -1.832955    -29.289915    -111.973175    -13.674142    -29.715675    -18.413101    0.977108    11.391201    -4.122724    28.431791    14.903075    40.177711    -5.480540    8.562684    34.371056    -22.231932    2.763885    36.918049    26.797766    -15.782118    -5.210113    -24.770439    53.429001    -16.354769    10.201955    -31.345474    51.022392    0.000000    0.000000    0.000000    -24.459648    -9.196443    -12.061384    8.199937    24.546812    -11.276736    14.485533    2.502846    -19.702803    0.000000    0.000000    0.000000    
-26.179033    145.629623    -84.678680    -2.059866    -7.490474    36.539852    -2.225837    3.903890    1.263817    -1.264476    -0.360969    0.393235    0.703606    6.132197    -17.415894    17.290085    -2.313566    -15.466340    3.370077    8.002297    -13.217516    -29.586473    15.938700    -50.327522    -1.857794    -29.170385    -111.978287    -13.548279    -29.647379    -18.409693    0.979424    11.433727    -4.091231    28.463715    14.927660    39.827400    -5.647027    8.510561    34.425896    -22.177702    2.768918    36.989906    26.589609    -15.770570    -5.521010    -25.201361    53.598587    -16.073294    10.381776    -31.515591    51.154446    0.000000    0.000000    0.000000    -24.549219    -9.020279    -11.332952    8.122099    24.366547    -11.363342    14.941536    2.802017    -20.384960    0.000000    0.000000    0.000000    
-25.561258    145.603043    -84.932144    -1.963549    -7.662823    36.706032    -2.317286    3.958304    1.356250    -1.200934    -0.344195    0.423132    0.624349    6.266106    -17.580359    17.493397    -2.168704    -15.620669    3.416242    7.895442    -13.197387    -29.398411    15.880450    -50.217331    -1.818208    -29.113142    -111.913269    -13.545175    -29.524498    -18.527464    1.011491    11.510674    -4.078867    28.478722    14.827004    39.472431    -5.659063    8.516720    34.487606    -22.177319    2.806083    36.881271    26.391281    -15.688314    -5.881789    -25.604616    53.732952    -15.823317    10.587249    -31.660030    51.234318    0.000000    0.000000    0.000000    -24.602573    -8.744406    -10.674238    7.953541    24.169920    -11.303638    15.488855    3.189680    -21.113344    0.000000    0.000000    0.000000    
-24.924110    145.600754    -85.197861    -1.855268    -7.830619    36.922791    -2.421858    3.994909    1.428075    -1.153944    -0.305454    0.446220    0.595067    6.343700    -17.719616    17.651297    -1.957356    -15.771420    3.484056    7.774506    -13.214738    -29.241985    15.806728    -50.083187    -1.855101    -29.016634    -111.895775    -13.530636    -29.467859    -18.616837    1.063836    11.538091    -4.041968    28.530231    14.765017    39.033470    -5.699483    8.525490    34.542114    -22.154673    2.855133    36.804161    26.151976    -15.610769    -6.296062    -26.001989    53.834618    -15.547431    10.805146    -31.798210    51.278992    0.000000    0.000000    0.000000    -24.715183    -8.443418    -9.948480    7.933579    23.949108    -11.376042    16.028070    3.593716    -21.968887    0.000000    0.000000    0.000000    
-24.248331    145.641907    -85.474655    -1.742360    -8.044272    37.188213    -2.478583    4.065797    1.491150    -1.129214    -0.263126    0.466597    0.588282    6.451262    -17.890293    17.828310    -1.779436    -15.949712    3.563192    7.697702    -13.244059    -29.033384    15.775826    -50.026783    -1.865868    -28.995251    -111.871780    -13.430503    -29.473024    -18.623392    1.163605    11.250895    -3.891568    28.685644    14.714255    38.237530    -5.581559    8.704892    34.641277    -22.228846    2.987246    36.767498    25.893661    -15.512280    -6.666045    -26.283867    53.959072    -15.390236    11.042415    -31.867876    51.347099    0.000000    0.000000    0.000000    -24.835209    -8.072879    -9.264394    7.930404    23.693983    -11.428167    16.604242    4.132198    -22.857061    0.000000    0.000000    0.000000    
-23.557144    145.706940    -85.777077    -1.641680    -8.226501    37.463615    -2.567203    4.106180    1.549439    -1.051137    -0.245756    0.484998    0.560021    6.569101    -18.050179    18.000948    -1.579123    -16.119432    3.610982    7.609473    -13.274564    -28.926876    15.672644    -49.963177    -1.947907    -28.786207    -111.846031    -12.759713    -29.484915    -18.442492    1.218668    11.221240    -3.902065    28.704041    14.760053    37.809326    -5.631623    8.757273    34.506714    -22.223623    3.009039    36.956333    25.620386    -15.440226    -7.003063    -26.586216    54.049911    -15.208317    11.319047    -31.884947    51.436920    0.000000    0.000000    0.000000    -24.996130    -7.762780    -8.804637    7.895304    23.513950    -11.527460    17.173426    4.781999    -23.574818    0.000000    0.000000    0.000000    
-22.788776    145.811279    -86.124512    -1.532779    -8.435469    37.806366    -2.537000    4.180750    1.566734    -1.073490    -0.250605    0.490613    0.581580    6.692379    -18.211399    18.108068    -1.401706    -16.302027    3.673414    7.584861    -13.336787    -28.797411    15.634265    -49.925133    -2.085010    -28.690342    -111.896973    -12.917769    -29.541109    -18.492376    1.270906    11.215458    -3.965369    28.771965    14.764429    37.392117    -5.616348    8.768918    34.443588    -22.167627    3.060212    36.827789    25.289627    -15.352180    -7.392592    -26.786314    54.119461    -15.106151    11.588472    -31.900558    51.512333    0.000000    0.000000    0.000000    -25.225985    -7.384082    -8.509463    7.909963    23.287174    -11.688938    17.709131    5.660453    -24.187635    0.000000    0.000000    0.000000    
-22.007853    145.953079    -86.469398    -1.466002    -8.645638    38.197018    -2.481385    4.190843    1.551053    -1.073125    -0.193615    0.486561    0.612820    6.734602    -18.360054    18.177078    -1.155790    -16.489502    3.734618    7.539458    -13.371754    -28.722845    15.605184    -49.902489    -2.266830    -28.513411    -111.974976    -13.062913    -29.582556    -18.501556    1.336851    11.211677    -4.071798    28.808708    14.776311    37.049034    -5.619478    8.869637    34.265797    -22.218544    3.094089    37.018444    24.975582    -15.301466    -7.708281    -26.825825    54.219418    -15.100090    11.772215    -31.915302    51.498760    0.000000    0.000000    0.000000    -25.438505    -7.007861    -8.527974    7.816561    23.083549    -11.736501    18.211710    6.727091    -24.610788    0.000000    0.000000    0.000000    
